<svg width="800" height="599" viewBox="0 0 800 599" fill="none" xmlns="http://www.w3.org/2000/svg">
<g clip-path="url(#clip0)">
<path d="M101.996 446.86C158.327 446.86 203.992 401.195 203.992 344.864C203.992 288.533 158.327 242.868 101.996 242.868C45.6651 242.868 0 288.533 0 344.864C0 401.195 45.6651 446.86 101.996 446.86Z" fill="#F2F2F2"/>
<path d="M118.581 431.934C174.911 431.934 220.576 386.269 220.576 329.938C220.576 273.607 174.911 227.942 118.581 227.942C62.2498 227.942 16.5847 273.607 16.5847 329.938C16.5847 386.269 62.2498 431.934 118.581 431.934Z" fill="#6C63FF"/>
<path d="M273.871 541.123H142.51V542.678H273.871V541.123Z" fill="#3F3D56"/>
<path d="M208.138 543.052C138.18 543.052 81.265 486.136 81.265 416.179C81.265 346.221 138.18 289.306 208.138 289.306C278.096 289.306 335.011 346.221 335.011 416.179C335.011 486.136 278.096 543.052 208.138 543.052ZM208.138 290.964C139.094 290.964 82.9235 347.135 82.9235 416.179C82.9235 485.222 139.094 541.393 208.138 541.393C277.181 541.393 333.352 485.222 333.352 416.179C333.352 347.135 277.181 290.964 208.138 290.964Z" fill="#3F3D56"/>
<path d="M570.432 140.326H567.187V51.4431C567.187 44.6875 565.857 37.998 563.272 31.7566C560.686 25.5153 556.897 19.8442 552.12 15.0673C547.343 10.2903 541.672 6.50107 535.431 3.91582C529.189 1.33058 522.5 -2.3957e-05 515.744 3.53606e-10H327.434C320.678 -2.50459e-05 313.989 1.33057 307.747 3.91582C301.506 6.50106 295.835 10.2903 291.058 15.0673C286.281 19.8442 282.492 25.5152 279.907 31.7566C277.321 37.998 275.991 44.6875 275.991 51.4431V539.062C275.991 545.817 277.321 552.507 279.907 558.748C282.492 564.989 286.281 570.661 291.058 575.437C295.835 580.214 301.506 584.004 307.747 586.589C313.989 589.174 320.678 590.505 327.434 590.505H515.744C522.5 590.505 529.189 589.174 535.431 586.589C541.672 584.004 547.343 580.214 552.12 575.437C556.897 570.661 560.686 564.989 563.272 558.748C565.857 552.507 567.188 545.817 567.188 539.062V203.594H570.432L570.432 140.326Z" fill="#3F3D56"/>
<path d="M800 588.911H242.359V590.899H800V588.911Z" fill="#3F3D56"/>
<path d="M516.603 14.6006H492.023C493.153 17.372 493.585 20.3788 493.279 23.3563C492.974 26.3337 491.941 29.1903 490.271 31.6745C488.602 34.1587 486.347 36.1942 483.705 37.6017C481.064 39.0092 478.117 39.7455 475.124 39.7457H367.243C364.25 39.7455 361.303 39.0092 358.662 37.6017C356.02 36.1942 353.765 34.1587 352.096 31.6745C350.426 29.1903 349.393 26.3337 349.088 23.3563C348.783 20.3788 349.214 17.372 350.344 14.6006H327.386C322.341 14.6006 317.345 15.5943 312.684 17.5249C308.023 19.4555 303.788 22.2853 300.221 25.8527C296.654 29.42 293.824 33.6551 291.893 38.316C289.963 42.977 288.969 47.9726 288.969 53.0176V539.921C288.969 544.966 289.963 549.962 291.893 554.623C293.824 559.284 296.654 563.519 300.221 567.086C303.788 570.653 308.023 573.483 312.684 575.414C317.345 577.344 322.341 578.338 327.386 578.338H516.603C521.648 578.338 526.644 577.344 531.305 575.414C535.966 573.483 540.201 570.653 543.768 567.086C547.336 563.519 550.166 559.284 552.096 554.623C554.027 549.962 555.021 544.966 555.021 539.921V53.0177C555.021 47.9726 554.027 42.977 552.096 38.3161C550.166 33.6551 547.336 29.42 543.768 25.8527C540.201 22.2853 535.966 19.4555 531.305 17.5249C526.644 15.5943 521.648 14.6006 516.603 14.6006V14.6006ZM512.474 240.478C512.466 243.115 511.415 245.641 509.551 247.506C507.686 249.37 505.16 250.421 502.523 250.429H454.427C451.791 250.421 449.264 249.37 447.4 247.506C445.535 245.641 444.484 243.115 444.476 240.478V237.99C444.484 235.354 445.535 232.827 447.4 230.963C449.264 229.098 451.791 228.047 454.427 228.04H502.523C505.16 228.047 507.686 229.098 509.551 230.963C511.415 232.827 512.466 235.354 512.474 237.99V240.478ZM517.864 196.529C517.856 199.165 516.805 201.692 514.941 203.556C513.076 205.421 510.55 206.472 507.913 206.48H335.432C332.795 206.472 330.269 205.421 328.404 203.556C326.54 201.692 325.489 199.165 325.481 196.529V194.041C325.489 191.404 326.54 188.878 328.404 187.013C330.269 185.149 332.795 184.098 335.432 184.09H507.913C510.55 184.098 513.076 185.149 514.941 187.013C516.805 188.878 517.856 191.404 517.864 194.041V196.529ZM517.864 152.579C517.856 155.216 516.805 157.743 514.941 159.607C513.076 161.472 510.55 162.522 507.913 162.53H335.432C332.795 162.522 330.269 161.472 328.404 159.607C326.54 157.743 325.489 155.216 325.481 152.579V150.092C325.489 147.455 326.54 144.928 328.404 143.064C330.269 141.199 332.795 140.149 335.432 140.141H507.913C510.55 140.149 513.076 141.199 514.941 143.064C516.805 144.928 517.856 147.455 517.864 150.092V152.579ZM517.864 108.63C517.856 111.267 516.805 113.793 514.941 115.658C513.076 117.522 510.55 118.573 507.913 118.581H335.432C332.795 118.573 330.269 117.522 328.404 115.658C326.54 113.793 325.489 111.267 325.481 108.63V106.142C325.489 103.505 326.54 100.979 328.404 99.1144C330.269 97.2499 332.795 96.1991 335.432 96.1914H507.913C510.55 96.1991 513.076 97.2499 514.941 99.1144C516.805 100.979 517.856 103.505 517.864 106.142V108.63Z" fill="#6C63FF"/>
<path d="M339.993 201.504C343.199 201.504 345.798 198.905 345.798 195.699C345.798 192.493 343.199 189.895 339.993 189.895C336.787 189.895 334.188 192.493 334.188 195.699C334.188 198.905 336.787 201.504 339.993 201.504Z" fill="#D0CDE1"/>
<path d="M359.065 201.504C362.271 201.504 364.87 198.905 364.87 195.699C364.87 192.493 362.271 189.895 359.065 189.895C355.86 189.895 353.261 192.493 353.261 195.699C353.261 198.905 355.86 201.504 359.065 201.504Z" fill="#D0CDE1"/>
<path d="M378.138 201.504C381.344 201.504 383.942 198.905 383.942 195.699C383.942 192.493 381.344 189.895 378.138 189.895C374.932 189.895 372.333 192.493 372.333 195.699C372.333 198.905 374.932 201.504 378.138 201.504Z" fill="#D0CDE1"/>
<path d="M397.21 201.504C400.416 201.504 403.015 198.905 403.015 195.699C403.015 192.493 400.416 189.895 397.21 189.895C394.004 189.895 391.406 192.493 391.406 195.699C391.406 198.905 394.004 201.504 397.21 201.504Z" fill="#D0CDE1"/>
<path d="M459.403 245.453C462.609 245.453 465.207 242.855 465.207 239.649C465.207 236.443 462.609 233.844 459.403 233.844C456.197 233.844 453.598 236.443 453.598 239.649C453.598 242.855 456.197 245.453 459.403 245.453Z" fill="#D0CDE1"/>
<path d="M478.475 245.453C481.681 245.453 484.28 242.855 484.28 239.649C484.28 236.443 481.681 233.844 478.475 233.844C475.269 233.844 472.67 236.443 472.67 239.649C472.67 242.855 475.269 245.453 478.475 245.453Z" fill="#D0CDE1"/>
<path d="M497.548 245.453C500.753 245.453 503.352 242.855 503.352 239.649C503.352 236.443 500.753 233.844 497.548 233.844C494.342 233.844 491.743 236.443 491.743 239.649C491.743 242.855 494.342 245.453 497.548 245.453Z" fill="#D0CDE1"/>
<path d="M670.857 49.7539H694.076V26.5353L670.857 26.5353V49.7539Z" fill="#F2F2F2"/>
<path d="M665.882 55.5586H689.101V32.34H665.882V55.5586Z" fill="#6C63FF"/>
<path d="M643.493 40.6323H681.638V78.7771H643.493V40.6323ZM679.979 42.2908H645.151V77.1187H679.979V42.2908Z" fill="#3F3D56"/>
<path d="M240.485 218.088H217.266V241.307H240.485V218.088Z" fill="#F2F2F2"/>
<path d="M245.46 212.284H222.242V235.503H245.46V212.284Z" fill="#6C63FF"/>
<path d="M267.85 227.21H229.705V189.065H267.85V227.21ZM231.363 225.552H266.191V190.724H231.363V225.552Z" fill="#3F3D56"/>
<path d="M611.999 349.811C611.999 349.811 597.532 379.95 607.176 381.156C616.821 382.361 619.232 354.03 619.232 354.03L611.999 349.811Z" fill="#FFB9B9"/>
<path d="M666.852 542.704L657.208 559.796L674.688 570.734L678.863 550.552L666.852 542.704Z" fill="#FFB9B9"/>
<path d="M662.734 562.17C662.734 562.17 657.438 553.548 655.523 554.991C653.607 556.434 645.707 562.688 645.707 562.688L635.416 572.544C635.416 572.544 600.649 576.22 622.741 588.401C644.833 600.583 657.042 590.483 657.042 590.483C657.042 590.483 687.983 592.092 687.484 583.459C686.985 574.826 677.006 561.169 677.006 561.169C677.006 561.169 664.429 569.601 662.734 562.17Z" fill="#2F2E41"/>
<path opacity="0.1" d="M662.734 562.17C662.734 562.17 657.438 553.548 655.523 554.991C653.607 556.434 645.707 562.688 645.707 562.688L635.416 572.544C635.416 572.544 600.649 576.22 622.741 588.401C644.833 600.583 657.042 590.483 657.042 590.483C657.042 590.483 687.983 592.092 687.484 583.459C686.985 574.826 677.006 561.169 677.006 561.169C677.006 561.169 664.429 569.601 662.734 562.17Z" fill="black"/>
<path d="M709.651 349.509L700.609 458.916C700.609 458.916 700.307 524.318 690.663 536.977C681.018 549.636 680.717 555.965 680.717 555.965L660.825 545.717C660.825 545.717 667.455 545.115 664.441 540.895C661.427 536.676 652.386 540.895 660.825 534.867C669.264 528.839 671.072 528.642 668.962 526.028C667.662 524.37 666.736 522.45 666.25 520.4L671.675 452.888L661.427 335.344L709.651 349.509Z" fill="#2F2E41"/>
<path opacity="0.1" d="M709.651 349.509L700.609 458.916C700.609 458.916 700.307 524.318 690.663 536.977C681.018 549.636 680.717 555.965 680.717 555.965L660.825 545.717C660.825 545.717 667.455 545.115 664.441 540.895C661.427 536.676 652.386 540.895 660.825 534.867C669.264 528.839 671.072 528.642 668.962 526.028C667.662 524.37 666.736 522.45 666.25 520.4L671.675 452.888L661.427 335.344L709.651 349.509Z" fill="black"/>
<path d="M684.936 542.704L693.375 565.007L717.487 555.965L702.417 540.293L684.936 542.704Z" fill="#FFB9B9"/>
<path d="M696.909 555.419C696.909 555.419 687.899 549.788 686.773 552.04C685.647 554.293 681.142 563.865 681.142 563.865L676.074 577.943C676.074 577.943 645.104 597.651 671.569 598.777C698.035 599.903 704.792 584.7 704.792 584.7C704.792 584.7 734.637 571.749 730.132 563.865C725.627 555.982 709.86 547.806 709.86 547.806C709.86 547.806 701.977 561.613 696.909 555.419Z" fill="#2F2E41"/>
<path d="M633.096 349.811L628.274 450.477C628.274 450.477 651.782 517.386 672.277 528.237C672.277 528.237 672.277 541.498 677.1 543.909C678.537 544.651 679.81 545.674 680.846 546.916C681.881 548.158 682.657 549.596 683.128 551.143L709.65 544.512C709.65 544.512 703.02 537.881 705.431 534.867C707.842 531.853 697.595 525.223 697.595 525.223L671.072 460.724C671.072 460.724 666.852 458.916 665.647 452.888C664.441 446.86 662.03 446.86 668.058 445.654C674.086 444.449 674.086 438.421 674.086 438.421L693.978 346.797L633.096 349.811Z" fill="#2F2E41"/>
<path d="M654.796 191.88C668.113 191.88 678.908 181.085 678.908 167.769C678.908 154.452 668.113 143.657 654.796 143.657C641.48 143.657 630.685 154.452 630.685 167.769C630.685 181.085 641.48 191.88 654.796 191.88Z" fill="#FFB9B9"/>
<path d="M676.195 169.275C676.195 169.275 678.004 200.018 680.415 203.032C682.826 206.046 655.098 205.443 655.098 205.443C655.098 205.443 656.906 179.523 655.098 177.112C653.289 174.7 676.195 169.275 676.195 169.275Z" fill="#FFB9B9"/>
<path d="M684.333 193.689C684.333 193.689 661.427 191.277 652.988 198.511C650.292 200.812 647.404 202.879 644.355 204.687C641.809 206.214 639.688 208.357 638.186 210.919C636.685 213.481 635.852 216.379 635.764 219.347L631.288 356.442C631.288 356.442 699.403 350.414 712.062 356.442C712.062 356.442 712.665 342.578 713.87 340.769C714.749 339.451 716.269 286.876 717.028 258.478C717.548 242.439 711.881 226.814 701.201 214.836C697.548 210.792 693.466 207.402 689.156 205.744C689.156 205.744 690.361 194.291 684.333 193.689Z" fill="#575A89"/>
<path d="M647.563 205.744C644.17 206.637 641.116 208.513 638.785 211.136C636.455 213.758 634.951 217.011 634.463 220.486L625.863 281.696L613.807 330.522C613.807 330.522 607.779 335.947 610.19 338.961C612.601 341.975 607.176 354.633 607.176 354.633L622.246 359.456C622.246 359.456 624.054 346.797 627.068 346.194C629.717 345.664 659.368 266.456 666.515 247.268C667.5 244.622 668.058 243.117 668.058 243.117C668.058 243.117 666.853 202.73 647.563 205.744Z" fill="#575A89"/>
<path opacity="0.1" d="M667.757 242.816L631.288 341.474C631.288 341.474 666.551 274.764 667.757 242.816Z" fill="black"/>
<path d="M667.393 174.873C665.354 174.752 663.363 175.441 661.338 175.71C654.093 176.671 646.556 171.414 644.957 164.283C644.828 163.333 644.545 162.411 644.119 161.553C643.004 159.733 640.464 159.386 638.371 159.804C636.278 160.223 634.293 161.203 632.161 161.314C628.87 161.487 625.71 159.461 623.956 156.67C622.298 153.791 621.593 150.462 621.941 147.158L623.519 148.814C624.161 147.458 624.408 145.949 624.234 144.458C625.07 144.236 625.949 144.231 626.788 144.446C627.626 144.66 628.395 145.086 629.022 145.683C630.413 145.832 629.363 143.103 630.397 142.16C630.9 141.851 631.499 141.739 632.079 141.845C635.039 141.873 637.434 139.609 639.766 137.787C643.808 134.636 648.534 132.48 653.563 131.494C656.905 130.842 660.46 130.737 663.629 131.982C666.188 133.13 668.498 134.769 670.428 136.804C675.39 141.576 679.785 147.183 681.85 153.751C683.528 159.131 683.576 164.887 681.986 170.294C681.154 173.101 678.647 182.718 674.977 182.941C670.365 183.223 673.134 175.216 667.393 174.873Z" fill="#2F2E41"/>
</g>
<defs>
<clipPath id="clip0">
<rect width="800" height="598.837" fill="white"/>
</clipPath>
</defs>
</svg>
